<svg xmlns="http://www.w3.org/2000/svg" width="12" height="12" viewBox="0 0 12 12">
  <path id="Icon_awesome-paperclip" data-name="Icon awesome-paperclip" d="M1.036,11.171A3.754,3.754,0,0,1,1.07,5.956L6.1.815a2.682,2.682,0,0,1,3.85,0,2.79,2.79,0,0,1,0,3.889L5.565,9.181a1.788,1.788,0,0,1-2.588-.024,1.857,1.857,0,0,1,.035-2.563L6.457,3.076A.383.383,0,0,1,7,3.07l.548.536a.383.383,0,0,1,.006.542L4.108,7.667a.324.324,0,0,0-.016.438.255.255,0,0,0,.376,0L8.85,3.631a1.255,1.255,0,0,0,0-1.745,1.149,1.149,0,0,0-1.657,0L2.166,7.028A2.219,2.219,0,0,0,2.138,10.1a2.044,2.044,0,0,0,2.949.007L9.21,5.893a.383.383,0,0,1,.542-.006l.548.536a.383.383,0,0,1,.006.542L6.183,11.182a3.576,3.576,0,0,1-5.147-.012Z" transform="translate(0)" fill="#fff"/>
</svg>
